<svg width="512" height="417" viewBox="0 0 512 417" fill="none" xmlns="http://www.w3.org/2000/svg">
<path d="M511.953 49.2882C493.13 57.6286 472.91 63.264 451.654 65.8112C473.339 52.8272 489.974 32.2241 497.819 7.69882C477.531 19.7361 455.057 28.4822 431.141 33.1709C411.98 12.7932 384.705 0.0346527 354.499 0.0346527C296.522 0.0346527 249.5 47.0566 249.5 105.079C249.5 113.284 250.447 121.264 252.205 128.973C164.901 124.577 87.5606 82.7626 35.7599 19.2402C26.7432 34.7939 21.5586 52.8272 21.5586 72.0327C21.5586 108.46 40.1104 140.627 68.265 159.449C51.0431 158.886 34.8582 154.175 20.7021 146.308V147.66C20.7021 198.537 56.8814 240.983 104.94 250.63C96.1039 253.02 86.8393 254.282 77.2816 254.282C70.5191 254.282 63.9144 253.651 57.5126 252.434C70.8798 294.136 109.651 324.522 155.614 325.333C119.66 353.511 74.3738 370.304 25.1879 370.304C16.7122 370.304 8.34923 369.808 0.121521 368.839C46.6024 398.661 101.784 416.018 161.069 416.018C354.251 416.018 459.859 256.018 459.859 117.251C459.859 112.743 459.746 108.19 459.543 103.681C480.056 88.8488 497.864 70.3872 511.907 49.3558L511.953 49.2882Z" fill="white"/>
</svg>
